<?xml version="1.0" encoding="UTF-8"?>
<svg width="480px" height="480px" viewBox="0 0 480 480" version="1.1" xmlns="http://www.w3.org/2000/svg" xmlns:xlink="http://www.w3.org/1999/xlink">
    <!-- Generator: Sketch 55.2 (78181) - https://sketchapp.com -->
    <title>death-star</title>
    <desc>Created with Sketch.</desc>
    <g id="Page-1" stroke="none" stroke-width="1" fill="none" fill-rule="evenodd">
        <path d="M136.4,116.247 C161.356,91.294 199.421,88.755 221.255,110.587 C231.999,121.331 237.227,136.2 235.977,152.456 C234.762,168.248 227.525,183.513 215.598,195.44 C203.671,207.367 188.406,214.604 172.613,215.819 C171.031,215.940333 169.464333,216.001 167.913,216.001 C153.503,216.001 140.443,210.801 130.743,201.101 C119.999,190.356 114.771,175.487 116.021,159.231 C117.236,143.439 124.474,128.174 136.4,116.247 Z M220.021,151.231 L220.023,151.231 C220.91,139.708 217.33,129.292 209.937,121.902 C203.068,115.033 193.806,111.681 183.996,111.681 C171.533,111.681 158.184,117.087 147.712,127.56 C138.484,136.79 132.894,148.473 131.973,160.46 C131.086,171.987 134.667,182.399 142.055,189.787 C149.443,197.175 159.859,200.753 171.382,199.87 C183.371,198.948 195.055,193.358 204.282,184.131 C213.51,174.901 219.1,163.219 220.021,151.231 Z M168,147.846 L184,147.846 L184,163.846 L168,163.846 L168,147.846 Z M472.944,182.075 C481.660415,217.332985 482.309872,254.103194 474.844,289.647 C474.17705,292.817247 471.663962,295.272294 468.479,295.865 L432,302.649 L432,320 L464,320 L464,336 L432,336 L432,352 C432,356.418278 428.418278,360 424,360 L387.313,360 L371.313,376 L432,376 L432,392 L360,392 L360,408 L384,408 L384,424 L360,424 L360,443.206 C359.998997,446.117369 358.41645,448.798353 355.868,450.206 C262.26928,501.758697 145.864704,485.247796 70.294,409.7 C55.440285,394.866752 42.5851456,378.159105 32.054,360 L32,360 L32,359.907 C10.9426289,323.460655 -0.0975590794,282.092035 -0.000641007491,240 C-0.0132276949,219.147881 2.67583126,198.381959 8,178.221 L8,176 L8.584,176 C13.9637922,156.438748 21.833496,137.649393 32,120.093 L32,120 L32.054,120 C90.5584056,19.0003956 213.131973,-25.4176807 322.758,14.655 C325.907161,15.8115777 328.000186,18.8101699 328,22.165 L328,56 L368,56 L368,72 L328,72 L328,88 L360,88 C361.579236,88.0002379 363.123075,88.4678781 364.437,89.344 L374.422,96 L424,96 L424,112 L398.422,112 L412.437,121.344 C414.331451,122.605367 415.598066,124.614782 415.919,126.868 L418.367,144 L448,144 L448,160 L420.653,160 L422.938,176 L465.179,176 C468.855835,175.999975 472.059262,178.506197 472.944,182.075 Z M120,288 L176,288 L176,248 L16.156,248 C16.6184667,261.455384 18.2858017,274.842257 21.138,288 L72,288 L72,304 L25.24,304 C29.3422353,317.831809 34.7881873,331.228985 41.5,344 L296,344 L296,304 L120,304 L120,288 Z M460.222,281.126 C465.691282,251.620518 465.218043,221.32029 458.83,192 L416,192 C412.02113,191.997261 408.649009,189.070837 408.086,185.132 L400.586,132.672 L357.578,104 L320,104 C315.581722,104 312,100.418278 312,96 L312,27.822 C240.194771,3.54511582 160.986989,17.1518542 101.4,64 L136,64 L136,80 L83.256,80 C82.708,80.538 82.152,81.065 81.608,81.608 C69.9593817,93.2432568 59.6176194,106.117059 50.767,120 L104,120 L104,136 L41.5,136 C34.7881873,148.771015 29.3422353,162.168191 25.24,176 L104,176 L104,192 L21.138,192 C18.2858017,205.157743 16.6184667,218.544616 16.156,232 L328,232 L328,192 L248,192 L248,176 L392,176 L392,192 L344,192 L344,232 L416,232 L416,248 L192,248 L192,288 L400,288 L400,304 L312,304 L312,344 L344,344 L344,360 L248,360 L248,400 L328,400 L328,416 L192,416 L192,400 L232,400 L232,360 L50.767,360 C59.6176194,373.882941 69.9593817,386.756743 81.608,398.392 C82.156,398.935 82.708,399.462 83.256,400 L144,400 L144,416 L101.4,416 C170.791947,470.602552 265.772853,479.384567 344,438.431 L344,384 C343.999923,381.878238 344.842727,379.843351 346.343,378.343 L378.343,346.343 C379.843351,344.842727 381.878238,343.999923 384,344 L416,344 L416,296 C416.000043,292.145978 418.747972,288.839804 422.537,288.135 L460.222,281.126 Z M256,120 L360,120 L360,136 L256,136 L256,120 Z M152,64 L168,64 L168,80 L152,80 L152,64 Z M184,64 L296,64 L296,80 L184,80 L184,64 Z M160,400 L176,400 L176,416 L160,416 L160,400 Z M88,288 L104,288 L104,304 L88,304 L88,288 Z M432,232 L448,232 L448,248 L432,248 L432,232 Z M344,24 L360,24 L360,40 L344,40 L344,24 Z M440,112 L456,112 L456,128 L440,128 L440,112 Z M400,408 L416,408 L416,424 L400,424 L400,408 Z" id="death-star" fill="#c78f22" fill-rule="nonzero"></path>
    </g>
</svg>